<svg width="231" height="46" viewBox="0 0 231 46" fill="none" xmlns="http://www.w3.org/2000/svg">
<g clip-path="url(#clip0_2_288)">
<path d="M18.3926 35.4338C14.831 35.4338 11.7734 34.7019 9.21977 33.2383C6.66618 31.7422 4.70058 29.6768 3.32297 27.0422C1.94537 24.3752 1.25657 21.3016 1.25657 17.8213C1.25657 14.3411 1.94537 11.2675 3.32297 8.60042C4.70058 5.93335 6.66618 3.85173 9.21977 2.35557C11.7734 0.859409 14.831 0.111328 18.3926 0.111328C22.6262 0.111328 26.0869 1.13587 28.775 3.18496C31.4966 5.20154 33.1933 8.04748 33.8654 11.7228H26.759C26.3222 9.8689 25.3813 8.42154 23.9366 7.38072C22.5254 6.30739 20.6437 5.77072 18.2918 5.77072C15.0326 5.77072 12.479 6.84406 10.631 8.99072C8.78298 11.1374 7.85897 14.081 7.85897 17.8213C7.85897 21.5617 8.78298 24.5053 10.631 26.6519C12.479 28.7661 15.0326 29.8231 18.2918 29.8231C20.6437 29.8231 22.5254 29.3353 23.9366 28.3595C25.3813 27.3513 26.3222 25.9689 26.759 24.2125H33.8654C33.1933 27.7253 31.4966 30.4737 28.775 32.4577C26.0869 34.4417 22.6262 35.4338 18.3926 35.4338ZM47.0352 35.4338C44.8847 35.4338 43.1207 35.1085 41.7432 34.458C40.3655 33.775 39.3407 32.8805 38.6688 31.7747C37.9967 30.6688 37.6608 29.4492 37.6608 28.1156C37.6608 25.8713 38.568 24.0499 40.3824 22.6513C42.1968 21.2528 44.9184 20.5534 48.5472 20.5534H54.8976V19.968C54.8976 18.3092 54.4103 17.0895 53.436 16.3089C52.4615 15.5283 51.2519 15.138 49.8072 15.138C48.4968 15.138 47.3543 15.447 46.38 16.065C45.4055 16.6504 44.8007 17.5286 44.5656 18.6995H38.2656C38.4335 16.9431 39.0383 15.4144 40.08 14.1134C41.1551 12.8124 42.5327 11.8204 44.2128 11.1374C45.8927 10.4218 47.7743 10.0641 49.8576 10.0641C53.4191 10.0641 56.2247 10.926 58.2744 12.6498C60.3239 14.3737 61.3488 16.8131 61.3488 19.968V34.8483H55.8552L55.2504 30.9453C54.5111 32.2462 53.4695 33.3196 52.1256 34.1653C50.8152 35.011 49.1183 35.4338 47.0352 35.4338ZM48.4968 30.555C50.3447 30.555 51.7728 29.9695 52.7808 28.7986C53.8223 27.6277 54.4775 26.1804 54.7464 24.4565H49.2528C47.5392 24.4565 46.3127 24.7655 45.5736 25.3834C44.8343 25.9689 44.4648 26.7007 44.4648 27.5789C44.4648 28.5222 44.8343 29.254 45.5736 29.7744C46.3127 30.2947 47.2872 30.555 48.4968 30.555ZM76.8291 35.4338C74.6115 35.4338 72.6626 35.0922 70.9827 34.4092C69.3026 33.6937 67.9587 32.7179 66.9507 31.4819C65.9427 30.2459 65.3379 28.8149 65.1363 27.1886H71.6379C71.8395 28.1319 72.377 28.945 73.2507 29.628C74.1579 30.2785 75.3171 30.6038 76.7283 30.6038C78.1395 30.6038 79.1642 30.3273 79.8027 29.7744C80.4746 29.2214 80.8107 28.5871 80.8107 27.8716C80.8107 26.8308 80.3402 26.1316 79.3995 25.7738C78.4586 25.3834 77.1482 25.0095 75.4683 24.6516C74.393 24.424 73.3011 24.1474 72.1923 23.8222C71.0835 23.497 70.0586 23.0904 69.1179 22.6025C68.2107 22.0822 67.4714 21.4316 66.9003 20.651C66.329 19.8379 66.0435 18.8459 66.0435 17.675C66.0435 15.5283 66.917 13.7231 68.6643 12.2595C70.445 10.7959 72.9314 10.0641 76.1235 10.0641C79.0802 10.0641 81.4322 10.7308 83.1795 12.0644C84.9602 13.3979 86.0186 15.2356 86.3547 17.5774H80.2563C79.8866 15.7885 78.4923 14.8941 76.0731 14.8941C74.8635 14.8941 73.9226 15.1217 73.2507 15.5771C72.6122 16.0325 72.2931 16.6016 72.2931 17.2847C72.2931 18.0002 72.7802 18.5695 73.7547 18.9922C74.729 19.415 76.0227 19.8053 77.6355 20.1631C79.3826 20.5534 80.9786 20.9925 82.4235 21.4804C83.9018 21.9358 85.0778 22.635 85.9515 23.5783C86.825 24.489 87.2619 25.8062 87.2619 27.5301C87.2954 29.0262 86.8922 30.3761 86.0523 31.5795C85.2122 32.7829 84.0026 33.7262 82.4235 34.4092C80.8442 35.0922 78.9794 35.4338 76.8291 35.4338ZM102.32 34.8483C99.6989 34.8483 97.5988 34.2304 96.0197 32.9944C94.4404 31.7584 93.6509 29.5629 93.6509 26.408V15.8698H89.3668V10.6495H93.6509L94.4069 4.16072H100.102V10.6495H106.856V15.8698H100.102V26.4568C100.102 27.6277 100.354 28.4408 100.858 28.8962C101.396 29.319 102.303 29.5304 103.58 29.5304H106.704V34.8483H102.32ZM120.005 35.4338C117.855 35.4338 116.091 35.1085 114.713 34.458C113.335 33.775 112.311 32.8805 111.638 31.7747C110.966 30.6688 110.63 29.4492 110.63 28.1156C110.63 25.8713 111.538 24.0499 113.352 22.6513C115.166 21.2528 117.888 20.5534 121.517 20.5534H127.867V19.968C127.867 18.3092 127.38 17.0895 126.406 16.3089C125.431 15.5283 124.222 15.138 122.777 15.138C121.466 15.138 120.324 15.447 119.35 16.065C118.375 16.6504 117.77 17.5286 117.535 18.6995H111.235C111.403 16.9431 112.008 15.4144 113.05 14.1134C114.125 12.8124 115.502 11.8204 117.182 11.1374C118.863 10.4218 120.744 10.0641 122.827 10.0641C126.389 10.0641 129.195 10.926 131.244 12.6498C133.294 14.3737 134.318 16.8131 134.318 19.968V34.8483H128.825L128.22 30.9453C127.481 32.2462 126.439 33.3196 125.095 34.1653C123.785 35.011 122.088 35.4338 120.005 35.4338ZM121.466 30.555C123.314 30.555 124.742 29.9695 125.75 28.7986C126.792 27.6277 127.447 26.1804 127.716 24.4565H122.222C120.509 24.4565 119.282 24.7655 118.543 25.3834C117.804 25.9689 117.434 26.7007 117.434 27.5789C117.434 28.5222 117.804 29.254 118.543 29.7744C119.282 30.2947 120.257 30.555 121.466 30.555ZM144.109 34.8483L136.801 10.6495H143.202L147.536 28.0668L152.576 10.6495H159.733L164.773 28.0668L169.158 10.6495H175.558L168.2 34.8483H161.497L156.154 16.748L150.812 34.8483H144.109ZM185.96 35.4338C183.81 35.4338 182.046 35.1085 180.668 34.458C179.291 33.775 178.266 32.8805 177.593 31.7747C176.922 30.6688 176.585 29.4492 176.585 28.1156C176.585 25.8713 177.492 24.0499 179.307 22.6513C181.121 21.2528 183.843 20.5534 187.472 20.5534H193.822V19.968C193.822 18.3092 193.335 17.0895 192.36 16.3089C191.387 15.5283 190.177 15.138 188.732 15.138C187.421 15.138 186.279 15.447 185.304 16.065C184.331 16.6504 183.726 17.5286 183.49 18.6995H177.19C177.358 16.9431 177.963 15.4144 179.004 14.1134C180.08 12.8124 181.458 11.8204 183.137 11.1374C184.818 10.4218 186.7 10.0641 188.782 10.0641C192.345 10.0641 195.15 10.926 197.199 12.6498C199.249 14.3737 200.273 16.8131 200.273 19.968V34.8483H194.78L194.175 30.9453C193.436 32.2462 192.395 33.3196 191.05 34.1653C189.74 35.011 188.043 35.4338 185.96 35.4338ZM187.421 30.555C189.27 30.555 190.697 29.9695 191.705 28.7986C192.748 27.6277 193.403 26.1804 193.671 24.4565H188.177C186.464 24.4565 185.238 24.7655 184.498 25.3834C183.759 25.9689 183.389 26.7007 183.389 27.5789C183.389 28.5222 183.759 29.254 184.498 29.7744C185.238 30.2947 186.212 30.555 187.421 30.555ZM207.709 45.5816L213.505 33.2383H211.993L202.266 10.6495H209.272L216.277 27.6765L223.585 10.6495H230.44L214.564 45.5816H207.709Z" fill="white"/>
</g>
<defs>
<clipPath id="clip0_2_288">
<rect width="230.4" height="46" fill="white" transform="translate(0.428574)"/>
</clipPath>
</defs>
</svg>
