<svg width="461" height="33" viewBox="0 0 461 33" fill="none" xmlns="http://www.w3.org/2000/svg">
<g clip-path="url(#clip0_2_290)">
<path d="M67.3066 31C75.2595 31 81.7066 24.732 81.7066 17C81.7066 9.26801 75.2595 3 67.3066 3C59.3537 3 52.9066 9.26801 52.9066 17C52.9066 24.732 59.3537 31 67.3066 31Z" fill="white"/>
<path d="M67.8487 1C59.028 1 51.878 8.16334 51.878 17C51.878 25.8366 59.028 33 67.8487 33C76.6696 33 83.8196 25.8366 83.8196 17C83.8196 8.16334 76.6696 1 67.8487 1ZM72.7962 17.148C72.7962 14.4927 70.6474 12.3397 67.9964 12.3397C65.346 12.3397 63.1972 14.4923 63.1972 17.148C63.1972 19.8033 65.346 21.9559 67.9964 21.9559V24.7036C63.8315 24.7036 60.4545 21.321 60.4545 17.148C60.4545 12.9751 63.831 9.5924 67.9964 9.5924C72.162 9.5924 75.5385 12.9751 75.5385 17.148H72.7962ZM77.4239 17.148C77.4239 11.9321 73.2034 7.7036 67.9964 7.7036C62.7901 7.7036 58.5695 11.9321 58.5695 17.148C58.5695 22.3638 62.7901 26.592 67.9964 26.592V29.7404C61.0547 29.7404 55.4268 24.1024 55.4268 17.148C55.4268 10.1933 61.0547 4.5556 67.9964 4.5556C74.9387 4.5556 80.5663 10.1933 80.5663 17.148H77.4239Z" fill="#F43E37"/>
</g>
<g clip-path="url(#clip1_2_290)">
<path fill-rule="evenodd" clip-rule="evenodd" d="M184.263 28.7357C183.943 29.5258 183.205 30.6383 182.158 31.4219C181.554 31.8745 180.832 32.3072 179.841 32.5927C178.784 32.8971 177.483 33 175.863 33H161.052C159.432 33 158.13 32.8971 157.074 32.5927C156.082 32.3072 155.361 31.8745 154.756 31.4219C153.709 30.6382 152.971 29.5258 152.651 28.7357C152.007 27.1438 152 25.3376 152 24.2V9.79997C152 8.66243 152.007 6.85622 152.651 5.26429C152.971 4.47418 153.709 3.36169 154.756 2.57806C155.361 2.12546 156.082 1.69283 157.074 1.40733C158.13 1.10288 159.432 1 161.052 1H175.863C177.483 1 178.784 1.10288 179.841 1.40733C180.832 1.69283 181.554 2.12559 182.158 2.57806C183.205 3.36182 183.944 4.47418 184.264 5.26429C184.908 6.85622 184.915 8.66243 184.915 9.79997V24.2C184.914 25.3375 184.908 27.1437 184.263 28.7357Z" fill="url(#paint0_linear_2_290)"/>
<path d="M170.844 19.3932C170.35 18.8866 169.483 18.5618 168.459 18.5618C167.435 18.5618 166.567 18.8866 166.073 19.3932C165.816 19.6576 165.679 19.9286 165.636 20.3147C165.553 21.0624 165.6 21.7061 165.69 22.7353C165.776 23.716 165.939 25.0239 166.151 26.3559C166.303 27.3038 166.426 27.8154 166.538 28.1818C166.719 28.7755 167.398 29.2948 168.459 29.2948C169.52 29.2948 170.198 28.7754 170.38 28.1818C170.492 27.8154 170.615 27.3038 170.766 26.3559C170.979 25.0239 171.142 23.716 171.228 22.7353C171.318 21.706 171.364 21.0622 171.281 20.3147C171.238 19.9288 171.102 19.6576 170.844 19.3932ZM165.768 14.8821C165.768 16.3284 166.974 17.5009 168.461 17.5009C169.949 17.5009 171.155 16.3284 171.155 14.8821C171.155 13.4357 169.949 12.2632 168.461 12.2632C166.974 12.2632 165.768 13.4357 165.768 14.8821ZM168.428 4.54692C162.128 4.56435 156.966 9.53329 156.888 15.6579C156.825 20.6192 160.082 24.8631 164.631 26.4187C164.741 26.4564 164.853 26.3673 164.836 26.2548C164.776 25.8695 164.72 25.4824 164.668 25.1018C164.65 24.9673 164.562 24.8513 164.434 24.797C160.839 23.2699 158.328 19.7643 158.369 15.7036C158.421 10.3747 162.897 6.03024 168.379 5.98713C173.982 5.94313 178.555 10.3621 178.555 15.7999C178.555 19.8199 176.056 23.2825 172.488 24.7974C172.36 24.8517 172.273 24.968 172.255 25.1025C172.203 25.4829 172.147 25.8699 172.087 26.2548C172.07 26.3673 172.182 26.4564 172.292 26.4188C176.797 24.8781 180.036 20.7002 180.036 15.8C180.036 9.58403 174.825 4.52912 168.428 4.54692ZM168.219 9.70942C171.79 9.575 174.74 12.3606 174.74 15.8033C174.74 17.5542 173.977 19.135 172.757 20.2482C172.654 20.3426 172.598 20.4766 172.606 20.6143C172.63 21.0331 172.621 21.4401 172.593 21.8997C172.585 22.0221 172.726 22.1003 172.831 22.0313C174.876 20.6726 176.221 18.388 176.221 15.8033C176.221 11.5477 172.575 8.10427 168.16 8.27061C164.058 8.42525 160.766 11.7138 160.714 15.7052C160.679 18.3302 162.032 20.6558 164.104 22.0315C164.208 22.1006 164.348 22.0223 164.341 21.8999C164.312 21.4401 164.303 21.0331 164.327 20.6143C164.335 20.4767 164.28 20.3427 164.177 20.2485C162.919 19.1006 162.147 17.4557 162.196 15.6397C162.283 12.4439 164.933 9.83316 168.219 9.70942Z" fill="white"/>
</g>
<g clip-path="url(#clip2_2_290)">
<path d="M17.2565 1.05273C8.19543 1.05273 0.84967 8.19426 0.84967 17.0036C0.84967 25.8133 8.19543 32.9543 17.2565 32.9543C26.3185 32.9543 33.6634 25.8133 33.6634 17.0036C33.6634 8.19483 26.3185 1.0535 17.2563 1.0535L17.2565 1.05273ZM24.7805 24.0584C24.4866 24.527 23.8558 24.6756 23.3738 24.388C19.5217 22.1004 14.6723 21.5823 8.96128 22.8508C8.41095 22.9727 7.86237 22.6375 7.73698 22.1023C7.611 21.567 7.95445 21.0337 8.50616 20.9118C14.7559 19.523 20.1168 20.1213 24.4416 22.6908C24.9235 22.9784 25.0764 23.5899 24.7805 24.0584ZM26.7887 19.7146C26.4184 20.3004 25.6308 20.4851 25.0293 20.1251C20.6192 17.4891 13.8966 16.7259 8.68033 18.2653C8.00383 18.464 7.28931 18.0933 7.08399 17.4367C6.88024 16.779 7.26168 16.0857 7.93702 15.8857C13.8955 14.128 21.303 14.9794 26.3675 18.0051C26.969 18.3651 27.1589 19.1308 26.7887 19.7148V19.7146ZM26.961 15.192C21.6733 12.1384 12.949 11.8577 7.90038 13.3474C7.08967 13.5864 6.23233 13.1415 5.98665 12.3533C5.74097 11.5647 6.19824 10.7318 7.00954 10.4922C12.805 8.78169 22.4392 9.11216 28.5273 12.6259C29.2581 13.0466 29.4971 13.9623 29.0641 14.6703C28.6331 15.3792 27.6888 15.6129 26.9619 15.192H26.961Z" fill="#1ED760"/>
</g>
<path d="M218.793 31C226.781 31 233.257 24.704 233.257 16.9375C233.257 9.171 226.781 2.875 218.793 2.875C210.804 2.875 204.328 9.171 204.328 16.9375C204.328 24.704 210.804 31 218.793 31Z" fill="white" stroke="#363F46" stroke-width="2.42578" stroke-linecap="round"/>
<path d="M210.94 10.999C210.94 10.999 208.94 13.1928 208.94 17.0258C208.94 20.8588 210.94 22.9642 210.94 22.9642" fill="white"/>
<path d="M210.94 10.999C210.94 10.999 208.94 13.1928 208.94 17.0258C208.94 20.8588 210.94 22.9642 210.94 22.9642" stroke="#FC7E0F" stroke-width="2.42578" stroke-linecap="round"/>
<path d="M226.876 10.999C226.876 10.999 228.876 13.1928 228.876 17.0258C228.876 20.8588 226.876 22.9642 226.876 22.9642" fill="white"/>
<path d="M226.876 10.999C226.876 10.999 228.876 13.1928 228.876 17.0258C228.876 20.8588 226.876 22.9642 226.876 22.9642" stroke="#FC7E0F" stroke-width="2.42578" stroke-linecap="round"/>
<path d="M223.685 13.5625C223.685 13.5625 225.033 15.1938 225 17.0179C224.958 19.2116 223.702 20.417 223.702 20.417" fill="white"/>
<path d="M223.685 13.5625C223.685 13.5625 225.033 15.1938 225 17.0179C224.958 19.2116 223.702 20.417 223.702 20.417" stroke="#FC7E0F" stroke-width="2.42578" stroke-linecap="round"/>
<path d="M214.065 13.5625C214.065 13.5625 212.717 15.1938 212.75 17.0179C212.792 19.2116 214.048 20.417 214.048 20.417" fill="white"/>
<path d="M214.065 13.5625C214.065 13.5625 212.717 15.1938 212.75 17.0179C212.792 19.2116 214.048 20.417 214.048 20.417" stroke="#FC7E0F" stroke-width="2.42578" stroke-linecap="round"/>
<path d="M218.791 19.1206C220.031 19.1206 221.036 18.1433 221.036 16.9377C221.036 15.7322 220.031 14.7549 218.791 14.7549C217.551 14.7549 216.546 15.7322 216.546 16.9377C216.546 18.1433 217.551 19.1206 218.791 19.1206Z" fill="#363F46"/>
<path d="M219.17 18.9767L217.578 18.5605L214.926 28.1924L216.518 28.6085L219.17 18.9767Z" fill="#363F46"/>
<path d="M218.554 18.964L220.139 18.5547L222.778 28.1934L221.192 28.6027L218.554 18.964Z" fill="#363F46"/>
<path d="M217.08 24.1618L217.67 23.5752L221.753 27.4429L221.164 28.0296L217.08 24.1618Z" fill="#363F46"/>
<path d="M220.539 24.1825L220.006 23.6572L215.957 27.5659L216.49 28.0912L220.539 24.1825Z" fill="#363F46"/>
<g clip-path="url(#clip3_2_290)">
<path d="M134.164 17C134.164 25.8889 126.827 33 117.946 33C109.065 33 101.6 25.8889 101.6 17C101.6 8.11112 108.937 1 117.818 1C126.699 1 134.164 8.11112 134.164 17Z" fill="url(#paint1_linear_2_290)"/>
<path d="M106.403 18.0691C106.41 18.0162 106.448 17.979 106.497 17.979C106.544 17.979 106.583 18.0162 106.59 18.0688L106.792 19.3458L106.59 20.6011C106.582 20.6537 106.544 20.6903 106.497 20.6903C106.448 20.6903 106.41 20.6534 106.403 20.6006L106.233 19.3458L106.403 18.0691Z" fill="white"/>
<path d="M107.358 17.189C107.407 17.189 107.447 17.2269 107.455 17.2817L107.716 19.346L107.455 21.3651C107.447 21.4198 107.407 21.4578 107.358 21.4578C107.309 21.4578 107.268 21.4187 107.261 21.3646L107.032 19.346L107.261 17.2817C107.268 17.2281 107.309 17.189 107.358 17.189Z" fill="white"/>
<path d="M110.888 15.5498C110.893 15.4534 110.971 15.3774 111.064 15.3774C111.158 15.3774 111.235 15.4534 111.241 15.5498L111.447 19.3476L111.241 21.8022V21.8015C111.235 21.8977 111.158 21.9736 111.064 21.9736C110.971 21.9736 110.893 21.8979 110.888 21.802L110.706 19.3476L110.888 15.5498Z" fill="white"/>
<path d="M109.059 16.83C109.065 16.7541 109.124 16.6973 109.196 16.6973C109.268 16.6973 109.327 16.7541 109.333 16.8295L109.566 19.3464L109.333 21.781C109.327 21.8564 109.268 21.9133 109.196 21.9133C109.124 21.9133 109.065 21.8564 109.059 21.781L108.854 19.3464L109.059 16.83Z" fill="white"/>
<path d="M113.178 21.7618C113.173 21.8805 113.079 21.9732 112.962 21.9732C112.845 21.9732 112.75 21.8802 112.746 21.7626L112.588 19.3484L112.746 14.2927C112.75 14.174 112.845 14.0811 112.962 14.0811C113.079 14.0811 113.174 14.1738 113.178 14.2924L113.357 19.3487L113.178 21.7618Z" fill="white"/>
<path d="M117.144 21.6943C117.141 21.8544 117.009 21.9847 116.848 21.9847C116.688 21.9847 116.555 21.8544 116.553 21.6957C116.553 21.6957 116.441 19.3521 116.441 19.3484L116.553 13.5109C116.555 13.3505 116.688 13.2202 116.848 13.2202C117.009 13.2202 117.141 13.3508 117.144 13.5107L117.269 19.3503L117.144 21.6943Z" fill="white"/>
<path d="M115.146 21.7238C115.143 21.8647 115.03 21.9752 114.891 21.9752C114.75 21.9752 114.638 21.8647 114.635 21.7253L114.499 19.3493L114.634 14.2561C114.637 14.1152 114.75 14.0049 114.89 14.0049C115.03 14.0049 115.142 14.1152 115.146 14.2561L115.298 19.349L115.146 21.7255V21.7238Z" fill="white"/>
<path d="M110.283 21.8014C110.277 21.8877 110.21 21.9532 110.127 21.9532C110.043 21.9532 109.976 21.8877 109.97 21.8011L109.777 19.3465L109.97 17.0123C109.976 16.9255 110.043 16.8599 110.127 16.8599C110.21 16.8599 110.277 16.925 110.283 17.0112L110.503 19.3465L110.283 21.8014Z" fill="white"/>
<path d="M108.39 21.7063C108.383 21.7716 108.334 21.8188 108.273 21.8188C108.212 21.8188 108.163 21.7713 108.157 21.7059L107.939 19.3461L108.157 16.8969C108.163 16.8317 108.212 16.7842 108.273 16.7842C108.334 16.7842 108.383 16.8315 108.39 16.8969L108.637 19.3461L108.39 21.7063Z" fill="white"/>
<path d="M115.589 14.4426C115.592 14.2903 115.714 14.1714 115.865 14.1714C116.017 14.1714 116.138 14.2903 116.141 14.4421L116.279 19.3499L116.141 21.7111V21.7091C116.138 21.8613 116.017 21.98 115.865 21.98C115.714 21.98 115.592 21.8611 115.589 21.7108L115.466 19.3497L115.589 14.4426Z" fill="white"/>
<path d="M112.206 21.7861C112.201 21.8936 112.115 21.978 112.01 21.978C111.904 21.978 111.818 21.8936 111.814 21.7871L111.643 19.3481L111.813 14.6815C111.818 14.574 111.904 14.4897 112.01 14.4897C112.115 14.4897 112.201 14.5737 112.206 14.6815L112.398 19.3481L112.206 21.7861Z" fill="white"/>
<path d="M114.159 21.7479V21.7476C114.154 21.8765 114.051 21.9778 113.923 21.9778C113.794 21.9778 113.691 21.8761 113.687 21.7477L113.54 19.3486L113.687 14.1222C113.69 13.9922 113.794 13.8906 113.923 13.8906C114.051 13.8906 114.155 13.9924 114.159 14.1222L114.324 19.3489L114.159 21.7466V21.7476C114.159 21.7473 114.159 21.7471 114.159 21.7469V21.7479Z" fill="white"/>
<path d="M125.557 16.5556C125.898 16.4145 126.273 16.3362 126.665 16.3362C128.248 16.3362 129.531 17.6022 129.531 19.1638C129.531 20.7253 128.248 21.9912 126.665 21.9912C126.614 21.9912 118.729 21.9873 118.722 21.9865C118.551 21.9694 118.415 21.8253 118.412 21.6523V12.6792C118.415 12.5143 118.472 12.4293 118.688 12.3467C119.245 12.1344 119.875 12.0088 120.521 12.0088C123.163 12.0088 125.329 14.0076 125.557 16.5556Z" fill="white"/>
<path d="M117.511 12.982C117.513 12.8108 117.655 12.6714 117.827 12.6714C117.998 12.6714 118.14 12.8108 118.142 12.9816L118.283 19.351L118.142 21.6628V21.66C118.14 21.8314 117.998 21.9705 117.827 21.9705C117.655 21.9705 117.513 21.8314 117.511 21.6625L117.381 19.351L117.511 12.982Z" fill="white"/>
</g>
<defs>
<linearGradient id="paint0_linear_2_290" x1="168.457" y1="1" x2="168.457" y2="33" gradientUnits="userSpaceOnUse">
<stop stop-color="#F452FF"/>
<stop offset="1" stop-color="#832BC1"/>
</linearGradient>
<linearGradient id="paint1_linear_2_290" x1="117.882" y1="1" x2="117.882" y2="33" gradientUnits="userSpaceOnUse">
<stop stop-color="#FF7602"/>
<stop offset="1" stop-color="#FF3502"/>
</linearGradient>
<clipPath id="clip0_2_290">
<rect width="32.9143" height="32" fill="white" transform="translate(51.2 1)"/>
</clipPath>
<clipPath id="clip1_2_290">
<rect width="32.9143" height="32" fill="white" transform="translate(152 1)"/>
</clipPath>
<clipPath id="clip2_2_290">
<rect width="32.9143" height="32" fill="white" transform="translate(0.799927 1)"/>
</clipPath>
<clipPath id="clip3_2_290">
<rect width="32.9143" height="32" fill="white" transform="translate(101.6 1)"/>
</clipPath>
</defs>
</svg>
